PathFileType	4	(X/Y/Z)	c:/Users/goper/Files/vsCode/490R/osim_files/C04/C04_Fast_03.trc
DataRate	CameraRate	NumFrames	NumMarkers	Units                	OrigDataRate	OrigDataStartFrame	OrigNumFrames
250.00	250.00	7	36	mm	250.0	2146	3432
                Frame#	Time	LPSIS			LASIS			LTH1			LTH2			LTH3			LTH4			LLFE			LMFE			LSH1			LSH2			LSH3			LSH4			LLMAL			LMMAL			LCAL			LMTP5			LTOE			LMTP1			RPSIS			RASIS			RTH1			RTH2			RTH3			RTH4			RLFE			RMFE			RSH1			RSH2			RSH3			RSH4			RLMAL			RMMAL			RCAL			RMTP1			RTOE			RMTP5		
		X1	Y1	Z1	X2	Y2	Z2	X3	Y3	Z3	X4	Y4	Z4	X5	Y5	Z5	X6	Y6	Z6	X7	Y7	Z7	X8	Y8	Z8	X9	Y9	Z9	X10	Y10	Z10	X11	Y11	Z11	X12	Y12	Z12	X13	Y13	Z13	X14	Y14	Z14	X15	Y15	Z15	X16	Y16	Z16	X17	Y17	Z17	X18	Y18	Z18	X19	Y19	Z19	X20	Y20	Z20	X21	Y21	Z21	X22	Y22	Z22	X23	Y23	Z23	X24	Y24	Z24	X25	Y25	Z25	X26	Y26	Z26	X27	Y27	Z27	X28	Y28	Z28	X29	Y29	Z29	X30	Y30	Z30	X31	Y31	Z31	X32	Y32	Z32	X33	Y33	Z33	X34	Y34	Z34	X35	Y35	Z35	X36	Y36	Z36

2146	8.58000	-321.87366	957.11029	252.98866	-493.51889	938.03247	310.21851	-444.53882	686.60602	380.27936	-472.85223	632.34729	367.93228	-500.83167	722.48254	384.67584	-538.36450	671.84436	371.77100	-598.18860	469.21854	333.71762	-605.82220	459.30676	216.37581	-585.83215	356.69284	342.07812	-595.74304	309.87976	338.87411	-636.23547	373.26410	345.99878	-653.39984	328.53470	342.21362	-723.22253	89.21339	318.62119	-713.97375	116.15945	231.32959	-674.25446	39.21381	267.32288	-866.01294	106.15641	324.54321	-869.04016	147.73555	275.92719	-853.95624	113.33479	221.38745	-315.29224	961.99469	178.19156	-480.90628	931.38855	94.60126	-334.68747	722.63422	31.49471	-325.67908	662.81018	46.01909	-400.09552	718.68097	31.17405	-401.87338	657.33698	46.05445	-326.77490	444.83521	88.82734	-319.76535	447.51425	202.90796	0.00000	0.00000	0.00000	-202.68266	300.79605	82.00534	-273.93790	320.82062	83.84945	-251.81284	278.46143	87.63282	-135.78683	98.29576	116.36790	-136.45786	111.50732	208.17380	-64.47333	84.72685	157.24551	-244.74309	31.14817	220.05339	-281.95065	44.53765	179.43660	-253.20471	19.57391	114.58188
2147	8.58400	-327.66150	956.62659	253.58388	-499.23459	937.63123	310.26099	-450.39795	686.28870	380.60553	-478.57196	631.92151	368.17987	-506.77945	722.05579	384.98224	-544.10797	671.22742	371.87750	-603.01648	468.23343	333.80264	-610.50653	458.65390	216.41322	-590.66370	355.61438	341.91711	-600.61530	308.85873	338.64163	-640.93372	372.37527	345.82983	-658.17358	327.55499	341.92902	-728.23206	88.29581	317.88153	-718.83069	115.47943	230.63998	-679.32538	38.31472	266.49847	-871.04559	105.44523	323.81461	-873.83258	147.04356	275.50421	-858.83820	112.76614	220.66107	-320.81281	961.49207	178.77527	-486.10757	930.94318	94.66884	-339.46997	722.37994	32.07658	-330.37811	662.56104	46.63285	-404.89154	718.23206	31.58592	-406.57767	656.96289	46.45501	-330.90109	444.59259	88.86565	-324.14761	447.13385	203.08662	0.00000	0.00000	0.00000	-205.65283	301.61078	81.95546	-276.99905	320.92645	83.78690	-254.25371	279.01245	87.27100	-136.72118	99.09454	116.41551	-137.77785	112.60748	207.84970	-64.99897	86.67631	157.16827	-244.91019	31.18937	220.03821	-282.11356	44.44727	179.38138	-253.21436	19.56190	114.56431
2148	8.58800	-333.31543	956.21613	254.14529	-505.13342	937.32965	310.64246	-456.32565	685.98279	380.89420	-484.41937	631.59021	368.43671	-512.83673	721.60541	385.26691	-549.99445	670.81671	372.10910	-607.78369	467.29843	333.80920	-615.11292	458.06128	216.46109	-595.43695	354.63290	341.70679	-605.41394	307.80115	338.32553	-645.76428	371.34302	345.60754	-662.94183	326.43637	341.60309	-732.84979	87.16298	317.11346	-723.31458	114.63039	229.91217	-683.81146	37.31670	265.61945	-875.76367	104.28864	322.99905	-878.41132	146.01640	274.81570	-863.33704	111.90343	219.90205	-326.47397	960.95544	179.36183	-491.35556	930.50439	94.73396	-344.37811	722.05994	32.68454	-335.16653	662.29999	47.25665	-409.75674	717.79987	32.00322	-411.35919	656.47565	46.88747	-335.29352	444.25354	88.93298	-328.86700	446.65164	203.11848	0.00000	0.00000	0.00000	-208.70644	302.44019	81.92236	-280.15961	321.05072	83.71139	-257.02081	279.37445	87.08507	-137.75847	99.94952	116.42486	-138.94598	113.86670	207.58087	-66.25639	88.41396	156.76035	-245.12782	31.25668	219.99518	-282.31479	44.35161	179.30177	-253.27356	19.51239	114.56586
2149	8.59200	-339.12360	955.78235	254.68707	-510.80704	937.16895	310.88794	-461.99258	685.73291	381.13940	-490.15439	631.28772	368.74060	-518.81592	721.30334	385.61673	-556.36017	670.20306	371.62531	-612.55646	466.49466	333.86041	-619.75964	457.50385	216.51697	-600.11584	353.58127	341.37140	-609.94849	306.79565	337.93939	-649.72333	370.47260	345.23145	-667.64679	325.24368	341.25082	-736.99188	86.02386	316.42358	-727.50641	113.55645	229.25986	-687.73407	36.38263	264.93915	-879.98145	102.99112	322.08563	-882.50732	144.71132	274.11798	-867.50256	110.59798	219.13841	-332.07739	960.53082	179.91728	-496.65491	930.07013	94.80295	-349.37198	721.74683	33.37851	-340.05914	662.01959	47.83778	-414.69980	717.38031	32.34007	-416.23950	655.94269	47.08797	-339.76160	443.94769	89.05077	-333.71472	446.14771	203.16718	0.00000	0.00000	0.00000	-211.91536	303.29758	81.87261	-283.44476	321.19250	83.61861	-259.98080	279.74100	86.96383	-138.91385	102.94858	114.99094	-140.03568	115.32666	207.33707	-66.66035	90.64281	156.79958	-245.29860	31.34282	219.95425	-282.49417	44.27549	179.24284	-252.89680	19.54456	114.02855
2150	8.59600	-345.02200	955.41119	255.22063	-516.64099	936.97327	311.18719	-467.66031	685.42560	381.28986	-495.96158	630.97101	368.99710	-524.64459	721.01172	385.95016	-562.10797	669.78491	371.73566	-617.35443	465.66299	333.78244	-624.50708	456.90594	216.55171	-604.72095	352.61697	341.05670	-614.33856	305.88416	337.61807	-654.97345	369.25629	345.10989	-672.07104	324.15454	340.91168	-740.69604	84.78634	315.73428	-731.10736	112.41208	228.57497	-691.28815	35.23349	264.12518	-883.82892	101.36095	321.17856	-886.37469	143.06093	273.31049	-871.08630	109.12494	218.25609	-337.84506	960.06683	180.44980	-502.01059	929.63849	94.88208	-354.39066	721.50543	34.06368	-345.08350	661.68988	48.45963	-419.72934	716.96906	32.51059	-421.27060	655.57373	47.07891	-344.31204	443.61288	89.16274	-338.52380	445.74072	203.23433	0.00000	0.00000	0.00000	-215.14311	304.13815	81.83144	-286.85928	321.34576	83.50802	-263.00198	280.09402	86.79955	-139.94864	104.24636	114.76158	-141.57008	116.63036	206.95876	-67.61861	92.89178	156.62880	-245.46758	31.46233	219.87315	-282.72876	44.17733	179.15395	-252.98407	19.59693	114.03696
2151	8.60000	-350.79385	955.05853	255.75835	-522.68658	936.64069	311.19205	-474.14459	685.44751	382.46927	-501.52692	630.66376	369.28149	-530.58893	720.62579	386.31790	-567.30505	669.40100	372.66830	-622.09045	464.84912	333.63855	-629.29932	456.27631	216.56181	-609.44366	350.90277	339.87494	-618.56915	304.98132	337.25375	-658.83209	368.22101	344.62442	-676.36627	321.95609	340.05246	-744.07123	83.41537	314.91830	-734.49231	111.10446	227.89020	-694.39777	34.09383	263.59433	-887.29401	99.43563	320.24426	-889.85870	141.18985	272.37192	-874.46021	107.30367	217.37167	-343.66995	959.63940	180.99858	-507.42703	929.20764	94.97766	-359.46024	721.19684	34.78758	-350.11981	661.35291	49.10525	-424.81799	716.49707	32.72823	-426.29672	655.09283	47.13166	-348.97446	443.31335	89.25352	-343.42871	445.25375	203.39754	0.00000	0.00000	0.00000	-218.55862	305.01605	81.79449	-290.40805	321.50449	83.37903	-266.22961	280.46341	86.71481	-140.36134	105.81026	113.93700	-143.12947	117.94474	206.54425	-68.76938	95.11777	156.37444	-245.61937	31.56957	219.78008	-282.96933	44.10463	179.00273	-253.04150	19.67735	113.99330
2152	8.60400	-356.71631	954.71674	256.27939	-528.56036	936.40948	311.18341	-479.96521	685.28345	382.85193	-507.18652	630.34528	369.60385	-536.56555	720.23590	386.55981	-573.17798	668.87305	372.85849	-626.94409	463.99423	333.53680	-634.01477	455.77524	216.54233	-613.67218	350.07193	339.59869	-622.74420	303.96695	336.81534	-663.39142	367.10678	344.24838	-680.60944	320.91260	339.67026	-747.01270	81.91742	314.27963	-737.42072	109.68443	227.15623	-696.99701	32.74497	262.92386	-890.30505	97.42298	319.27054	-892.95410	139.10056	271.39935	-877.25134	105.26924	216.39316	-349.39914	959.23938	181.53635	-512.90918	928.77576	95.09600	-364.67682	720.81311	35.49323	-355.24182	661.00189	49.71116	-429.99899	715.78650	33.77105	-431.43091	654.66943	48.06509	-353.87814	442.94794	89.36158	-348.57666	444.79718	203.41879	0.00000	0.00000	0.00000	-222.11559	305.93292	81.76818	-294.09583	321.66260	83.23110	-269.56458	280.74921	86.66977	-141.72762	107.11115	113.70716	-144.35725	119.69346	206.24727	-69.96743	97.51536	156.10367	-245.78085	31.71486	219.71130	-283.20514	44.04877	178.86877	-253.03252	19.83673	113.85330
